# xmcd
#
# Track frame offsets:
#	150
#	15687
#	28072
#	40987
#	54557
#	67842
#	81650
#	95197
#	107940
#	119765
#	132405
#	145050
#	158677
#	172562
#	186232
#	199832
#	214402
#	228650
#	239277
#	253225
#
# Disc length: 3545 seconds
#
# Revision: 1
# Processed by: cddbd v1.5.1PL0 Copyright (c) Steve Scherf et al.
# Submitted via: audiograbber 1.83.01
#
DISCID=2c0dd714
DTITLE=tzoumas petros - ipeirotika
DYEAR=1900
DGENRE=
TTITLE0=evga na se do
TTITLE1=elenaki-katinaki
TTITLE2=tis ksenyxtias ta ntertia
TTITLE3=einai varis o ponos mou
TTITLE4=ta ksexorismata
TTITLE5=apo ta ksena gyrisa
TTITLE6=i astrofeggia
TTITLE7=orko tha kano sto theo
TTITLE8=kontoula lemonia
TTITLE9=lygaria portokalia
TTITLE10=paidia kleftopoyla
TTITLE11=min me stelneis mana stin ameriki
TTITLE12=o menoysis
TTITLE13=m'ekanes na ypofero
TTITLE14=papa nteli papa
TTITLE15=pasompeis
TTITLE16=mai kopela sto pogoni
TTITLE17=sevntas
TTITLE18=kofto pogonisio
TTITLE19=i nostalgia
EXTD=
EXTT0=
EXTT1=
EXTT2=
EXTT3=
EXTT4=
EXTT5=
EXTT6=
EXTT7=
EXTT8=
EXTT9=
EXTT10=
EXTT11=
EXTT12=
EXTT13=
EXTT14=
EXTT15=
EXTT16=
EXTT17=
EXTT18=
EXTT19=
PLAYORDER=
